<svg xmlns="http://www.w3.org/2000/svg" version="1.1" xmlns:xlink="http://www.w3.org/1999/xlink" width="1000" height="1000"><style>
    #light-icon {
      display: inline;
    }
    #dark-icon {
      display: none;
    }

    @media (prefers-color-scheme: dark) {
      #light-icon {
        display: none;
      }
      #dark-icon {
        display: inline;
      }
    }
  </style><g id="light-icon"><svg xmlns="http://www.w3.org/2000/svg" version="1.1" xmlns:xlink="http://www.w3.org/1999/xlink" width="1000" height="1000"><g><g transform="matrix(2,0,0,2,0,0)"><svg xmlns="http://www.w3.org/2000/svg" version="1.1" xmlns:xlink="http://www.w3.org/1999/xlink" width="500" height="500"><svg xmlns="http://www.w3.org/2000/svg" xmlns:xlink="http://www.w3.org/1999/xlink" width="500" zoomAndPan="magnify" viewBox="0 0 375 374.999991" height="500" preserveAspectRatio="xMidYMid meet" version="1.0"><defs><g></g></defs><g fill="#000000" fill-opacity="1"><g transform="translate(10.992191, 243.461511)"><g><path d="M 48.5625 -16.75 C 49.382812 -16.75 49.796875 -16.375 49.796875 -15.625 L 49.796875 -1.015625 C 49.796875 -0.335938 49.382812 0 48.5625 0 L 1.234375 0 C 0.410156 0 0 -0.335938 0 -1.015625 L 0 -16.75 Z M 17.203125 -33.953125 L 0 -33.953125 L 0 -88.921875 C 0 -89.597656 0.410156 -89.9375 1.234375 -89.9375 L 16.078125 -89.9375 C 16.828125 -89.9375 17.203125 -89.597656 17.203125 -88.921875 Z M 17.203125 -33.953125 "></path></g></g></g><g fill="#000000" fill-opacity="1"><g transform="translate(63.378972, 243.461511)"><g><path d="M 66.328125 -89.9375 C 67.078125 -89.9375 67.453125 -89.597656 67.453125 -88.921875 L 67.453125 -30.015625 C 67.453125 -23.722656 65.972656 -18.328125 63.015625 -13.828125 C 60.054688 -9.328125 56.023438 -5.894531 50.921875 -3.53125 C 45.828125 -1.175781 40.097656 0 33.734375 0 C 27.585938 0 21.945312 -1.21875 16.8125 -3.65625 C 11.675781 -6.09375 7.585938 -9.554688 4.546875 -14.046875 C 1.515625 -18.546875 0 -23.867188 0 -30.015625 L 0 -73.640625 L 16.96875 -73.640625 L 16.96875 -30.125 C 17.5 -25.707031 19.394531 -22.335938 22.65625 -20.015625 C 25.914062 -17.691406 29.609375 -16.53125 33.734375 -16.53125 C 36.578125 -16.53125 39.269531 -17.015625 41.8125 -17.984375 C 44.363281 -18.960938 46.445312 -20.460938 48.0625 -22.484375 C 49.675781 -24.503906 50.484375 -27.015625 50.484375 -30.015625 L 50.484375 -88.921875 C 50.484375 -89.597656 50.894531 -89.9375 51.71875 -89.9375 Z M 66.328125 -89.9375 "></path></g></g></g><g fill="#000000" fill-opacity="1"><g transform="translate(134.202308, 243.461511)"><g><path d="M 80.5 -21.703125 L 80.5 -50.25 L 57.5625 -4.265625 C 57.40625 -3.816406 57.066406 -3.59375 56.546875 -3.59375 L 42.71875 -3.59375 C 42.125 -3.59375 41.75 -3.816406 41.59375 -4.265625 L 17.203125 -51.484375 L 17.203125 -1.015625 C 17.203125 -0.335938 16.789062 0 15.96875 0 L 1.125 0 C 0.375 0 0 -0.335938 0 -1.015625 L 0 -88.921875 C 0 -89.597656 0.375 -89.9375 1.125 -89.9375 L 16.1875 -89.9375 C 16.789062 -89.9375 17.164062 -89.710938 17.3125 -89.265625 L 49.578125 -23.390625 L 80.265625 -89.265625 C 80.566406 -89.710938 80.976562 -89.9375 81.5 -89.9375 L 96.34375 -89.9375 C 97.164062 -89.9375 97.578125 -89.597656 97.578125 -88.921875 L 97.578125 -21.703125 Z M 80.5 -21.703125 "></path></g></g></g><g fill="#ff751f" fill-opacity="1"><g transform="translate(236.730461, 243.461511)"><g><path d="M 36.65625 -15.40625 C 37.476562 -15.40625 37.890625 -15.066406 37.890625 -14.390625 L 37.890625 -1.015625 C 37.890625 -0.335938 37.476562 0 36.65625 0 L 1.234375 0 C 0.410156 0 0 -0.335938 0 -1.015625 L 0 -14.390625 C 0 -15.066406 0.410156 -15.40625 1.234375 -15.40625 L 10.453125 -15.40625 L 10.453125 -89.9375 L 27.65625 -89.9375 L 27.65625 -15.40625 Z M 36.65625 -15.40625 "></path></g></g></g><g fill="#000000" fill-opacity="1"><g transform="translate(276.527334, 243.461511)"><g><path d="M 81.953125 -89.9375 C 82.554688 -89.9375 82.96875 -89.75 83.1875 -89.375 C 83.414062 -89 83.378906 -88.625 83.078125 -88.25 L 52.046875 -44.96875 C 55.347656 -40.394531 58.664062 -35.785156 62 -31.140625 C 65.332031 -26.492188 68.648438 -21.847656 71.953125 -17.203125 L 51.046875 -17.203125 L 41.703125 -30.359375 L 20.234375 -0.34375 C 20.160156 -0.257812 20.007812 -0.179688 19.78125 -0.109375 C 19.5625 -0.0351562 19.375 0 19.21875 0 L 1.234375 0 C 0.710938 0 0.359375 -0.1875 0.171875 -0.5625 C -0.015625 -0.9375 0.0390625 -1.3125 0.34375 -1.6875 L 31.140625 -44.96875 C 27.835938 -49.539062 24.535156 -54.148438 21.234375 -58.796875 C 17.941406 -63.441406 14.648438 -68.085938 11.359375 -72.734375 L 32.265625 -72.734375 L 41.703125 -59.578125 L 62.953125 -89.59375 C 63.023438 -89.75 63.191406 -89.84375 63.453125 -89.875 C 63.722656 -89.914062 63.894531 -89.9375 63.96875 -89.9375 Z M 81.953125 -89.9375 "></path></g></g></g></svg></svg></g></g></svg></g><g id="dark-icon"><svg xmlns="http://www.w3.org/2000/svg" version="1.1" xmlns:xlink="http://www.w3.org/1999/xlink" width="1000" height="1000"><g><g transform="matrix(2,0,0,2,0,0)"><svg xmlns="http://www.w3.org/2000/svg" version="1.1" xmlns:xlink="http://www.w3.org/1999/xlink" width="500" height="500"><svg xmlns="http://www.w3.org/2000/svg" xmlns:xlink="http://www.w3.org/1999/xlink" width="500" zoomAndPan="magnify" viewBox="0 0 375 374.999991" height="500" preserveAspectRatio="xMidYMid meet" version="1.0"><defs><g></g><clipPath id="cd45f543cc"><path d="M 0.558594 34 L 51 34 L 51 125 L 0.558594 125 Z M 0.558594 34 " clip-rule="nonzero"></path></clipPath><clipPath id="ef1bc36f6c"><rect x="0" width="355" y="0" height="137"></rect></clipPath></defs><g transform="matrix(1, 0, 0, 1, 10, 119)"><g clip-path="url(#ef1bc36f6c)"><g clip-path="url(#cd45f543cc)"><g fill="#ffffff" fill-opacity="1"><g transform="translate(0.973608, 124.609372)"><g><path d="M 48.5625 -16.75 C 49.382812 -16.75 49.796875 -16.375 49.796875 -15.625 L 49.796875 -1.015625 C 49.796875 -0.335938 49.382812 0 48.5625 0 L 1.234375 0 C 0.410156 0 0 -0.335938 0 -1.015625 L 0 -16.75 Z M 17.203125 -33.953125 L 0 -33.953125 L 0 -88.921875 C 0 -89.597656 0.410156 -89.9375 1.234375 -89.9375 L 16.078125 -89.9375 C 16.828125 -89.9375 17.203125 -89.597656 17.203125 -88.921875 Z M 17.203125 -33.953125 "></path></g></g></g></g><g fill="#ffffff" fill-opacity="1"><g transform="translate(53.363661, 124.609372)"><g><path d="M 66.328125 -89.9375 C 67.078125 -89.9375 67.453125 -89.597656 67.453125 -88.921875 L 67.453125 -30.015625 C 67.453125 -23.722656 65.972656 -18.328125 63.015625 -13.828125 C 60.054688 -9.328125 56.023438 -5.894531 50.921875 -3.53125 C 45.828125 -1.175781 40.097656 0 33.734375 0 C 27.585938 0 21.945312 -1.21875 16.8125 -3.65625 C 11.675781 -6.09375 7.585938 -9.554688 4.546875 -14.046875 C 1.515625 -18.546875 0 -23.867188 0 -30.015625 L 0 -73.640625 L 16.96875 -73.640625 L 16.96875 -30.125 C 17.5 -25.707031 19.394531 -22.335938 22.65625 -20.015625 C 25.914062 -17.691406 29.609375 -16.53125 33.734375 -16.53125 C 36.578125 -16.53125 39.269531 -17.015625 41.8125 -17.984375 C 44.363281 -18.960938 46.445312 -20.460938 48.0625 -22.484375 C 49.675781 -24.503906 50.484375 -27.015625 50.484375 -30.015625 L 50.484375 -88.921875 C 50.484375 -89.597656 50.894531 -89.9375 51.71875 -89.9375 Z M 66.328125 -89.9375 "></path></g></g></g><g fill="#ffffff" fill-opacity="1"><g transform="translate(124.191416, 124.609372)"><g><path d="M 80.5 -21.703125 L 80.5 -50.25 L 57.5625 -4.265625 C 57.40625 -3.816406 57.066406 -3.59375 56.546875 -3.59375 L 42.71875 -3.59375 C 42.125 -3.59375 41.75 -3.816406 41.59375 -4.265625 L 17.203125 -51.484375 L 17.203125 -1.015625 C 17.203125 -0.335938 16.789062 0 15.96875 0 L 1.125 0 C 0.375 0 0 -0.335938 0 -1.015625 L 0 -88.921875 C 0 -89.597656 0.375 -89.9375 1.125 -89.9375 L 16.1875 -89.9375 C 16.789062 -89.9375 17.164062 -89.710938 17.3125 -89.265625 L 49.578125 -23.390625 L 80.265625 -89.265625 C 80.566406 -89.710938 80.976562 -89.9375 81.5 -89.9375 L 96.34375 -89.9375 C 97.164062 -89.9375 97.578125 -89.597656 97.578125 -88.921875 L 97.578125 -21.703125 Z M 80.5 -21.703125 "></path></g></g></g><g fill="#ff751f" fill-opacity="1"><g transform="translate(226.732779, 124.609372)"><g><path d="M 36.65625 -15.40625 C 37.476562 -15.40625 37.890625 -15.066406 37.890625 -14.390625 L 37.890625 -1.015625 C 37.890625 -0.335938 37.476562 0 36.65625 0 L 1.234375 0 C 0.410156 0 0 -0.335938 0 -1.015625 L 0 -14.390625 C 0 -15.066406 0.410156 -15.40625 1.234375 -15.40625 L 10.453125 -15.40625 L 10.453125 -89.9375 L 27.65625 -89.9375 L 27.65625 -15.40625 Z M 36.65625 -15.40625 "></path></g></g></g><g fill="#ffffff" fill-opacity="1"><g transform="translate(266.542508, 124.609372)"><g><path d="M 81.953125 -89.9375 C 82.554688 -89.9375 82.96875 -89.75 83.1875 -89.375 C 83.414062 -89 83.378906 -88.625 83.078125 -88.25 L 52.046875 -44.96875 C 55.347656 -40.394531 58.664062 -35.785156 62 -31.140625 C 65.332031 -26.492188 68.648438 -21.847656 71.953125 -17.203125 L 51.046875 -17.203125 L 41.703125 -30.359375 L 20.234375 -0.34375 C 20.160156 -0.257812 20.007812 -0.179688 19.78125 -0.109375 C 19.5625 -0.0351562 19.375 0 19.21875 0 L 1.234375 0 C 0.710938 0 0.359375 -0.1875 0.171875 -0.5625 C -0.015625 -0.9375 0.0390625 -1.3125 0.34375 -1.6875 L 31.140625 -44.96875 C 27.835938 -49.539062 24.535156 -54.148438 21.234375 -58.796875 C 17.941406 -63.441406 14.648438 -68.085938 11.359375 -72.734375 L 32.265625 -72.734375 L 41.703125 -59.578125 L 62.953125 -89.59375 C 63.023438 -89.75 63.191406 -89.84375 63.453125 -89.875 C 63.722656 -89.914062 63.894531 -89.9375 63.96875 -89.9375 Z M 81.953125 -89.9375 "></path></g></g></g></g></g></svg></svg></g></g></svg></g></svg>